# xmcd
#
# Track frame offsets:
# 150
# 62253
# 78017
# 111873
# 150088
# 184848
# 208539
# 220852
# 240647
# 256561
# 270516
# 290226
# 316451
#
# Disc length: 4385 seconds
#
#
# Revision: 0
# Processed by: cddbd v1.5.2PL0 Copyright (c) Steve Scherf et al.
# Submitted via: FreeRIP 2.945 
#
DISCID=a7111f0d
DTITLE=james brown - best of
DYEAR=1900
DGENRE=Soul
TTITLE0=More Peas
TTITLE1=Pass the peas
TTITLE2=the payback
TTITLE3=don't tell it
TTITLE4=same beat
TTITLE5=get up and sex mashine
TTITLE6=make funk
TTITLE7=papa don't teake no mess
TTITLE8=you can have watergate
TTITLE9=gimme some more
TTITLE10=breakin' bread
TTITLE11=givin up food for funk
TTITLE12=i got you feel good
EXTD=
EXTT0=
EXTT1=
EXTT2=
EXTT3=
EXTT4=
EXTT5=
EXTT6=
EXTT7=
EXTT8=
EXTT9=
EXTT10=
EXTT11=
EXTT12=
PLAYORDER=
